<svg aria-hidden="true" style="position: absolute; width: 0; height: 0; overflow: hidden;" version="1.1" xmlns="http://www.w3.org/2000/svg" xmlns:xlink="http://www.w3.org/1999/xlink">
<defs>
<symbol id="icon-big-games" viewBox="0 0 32 32">
<path d="M17.333 5.333v3.56l-1.333 1.333-1.333-1.333v-3.56h2.667zM26.667 14.667v2.667h-3.56l-1.333-1.333 1.333-1.333h3.56zM8.893 14.667l1.333 1.333-1.333 1.333h-3.56v-2.667h3.56zM16 21.773l1.333 1.333v3.56h-2.667v-3.56l1.333-1.333zM20 2.667h-8v7.333l4 4 4-4v-7.333zM29.333 12h-7.333l-4 4 4 4h7.333v-8zM10 12h-7.333v8h7.333l4-4-4-4zM16 18l-4 4v7.333h8v-7.333l-4-4z"></path>
</symbol>
<symbol id="icon-cake" viewBox="0 0 32 32">
<path d="M22.667 13.333c1.414 0 2.771 0.562 3.771 1.562s1.562 2.357 1.562 3.771v6.667c0 0.707-0.281 1.386-0.781 1.886s-1.178 0.781-1.886 0.781h-18.667c-0.707 0-1.386-0.281-1.886-0.781s-0.781-1.178-0.781-1.886v-6.667c0-1.414 0.562-2.771 1.562-3.771s2.357-1.562 3.771-1.562v-4h2.667v4h2.667v-4h2.667v4h2.667v-4h2.667v4zM9.333 16c-0.707 0-1.386 0.281-1.886 0.781s-0.781 1.178-0.781 1.886v1.333h18.667v-1.333c0-0.707-0.281-1.386-0.781-1.886s-1.178-0.781-1.886-0.781h-13.333zM6.667 22.667v2.667h18.667v-2.667h-18.667zM9.333 5.333c0.354 0 0.693-0.14 0.943-0.391s0.391-0.589 0.391-0.943c0.354 0 0.693 0.14 0.943 0.391s0.391 0.589 0.391 0.943v1.333c0 0.354-0.14 0.693-0.391 0.943s-0.589 0.391-0.943 0.391c-0.354 0-0.693-0.14-0.943-0.391s-0.391-0.589-0.391-0.943v-1.333zM14.667 5.333c0.354 0 0.693-0.14 0.943-0.391s0.391-0.589 0.391-0.943c0.354 0 0.693 0.14 0.943 0.391s0.391 0.589 0.391 0.943v1.333c0 0.354-0.14 0.693-0.391 0.943s-0.589 0.391-0.943 0.391c-0.354 0-0.693-0.14-0.943-0.391s-0.391-0.589-0.391-0.943v-1.333zM20 5.333c0.354 0 0.693-0.14 0.943-0.391s0.391-0.589 0.391-0.943c0.354 0 0.693 0.14 0.943 0.391s0.391 0.589 0.391 0.943v1.333c0 0.354-0.14 0.693-0.391 0.943s-0.589 0.391-0.943 0.391c-0.354 0-0.693-0.14-0.943-0.391s-0.391-0.589-0.391-0.943v-1.333z"></path>
</symbol>
<symbol id="icon-check" viewBox="0 0 32 32">
<path stroke-linejoin="miter" stroke-linecap="butt" stroke-miterlimit="4" stroke-width="1.3333" d="M25.418 9.064c0.132 0 0.234 0.041 0.339 0.146s0.146 0.209 0.146 0.344c0 0.135-0.040 0.239-0.145 0.345l-12.824 12.815c-0.11 0.109-0.211 0.147-0.335 0.147s-0.224-0.038-0.331-0.145l-6.047-6.047c-0.103-0.104-0.14-0.204-0.137-0.333 0.004-0.141 0.050-0.251 0.159-0.359 0.105-0.105 0.209-0.146 0.344-0.146 0.102 0 0.186 0.023 0.267 0.079l0.081 0.068 5.664 5.691 12.462-12.454c0.113-0.11 0.222-0.151 0.357-0.151z"></path>
</symbol>
<symbol id="icon-exit" viewBox="0 0 32 32">
<path stroke-linejoin="miter" stroke-linecap="butt" stroke-miterlimit="4" stroke-width="0.6667" d="M19.733 11.95c0.11 0 0.178 0.032 0.231 0.086s0.086 0.121 0.086 0.23c0 0.109-0.032 0.178-0.086 0.231l-3.503 3.503 3.503 3.502c0.054 0.054 0.086 0.122 0.086 0.231s-0.032 0.178-0.086 0.231-0.122 0.086-0.231 0.086c-0.109-0-0.178-0.032-0.231-0.086l-3.502-3.503-3.503 3.503c-0.054 0.054-0.122 0.086-0.231 0.086s-0.177-0.032-0.23-0.086c-0.054-0.054-0.086-0.122-0.086-0.231s0.032-0.178 0.086-0.231l3.502-3.502-3.502-3.503c-0.054-0.054-0.086-0.122-0.086-0.231s0.032-0.177 0.086-0.23 0.121-0.086 0.23-0.086c0.11 0 0.178 0.032 0.231 0.086l3.503 3.502 3.502-3.502c0.054-0.054 0.122-0.086 0.231-0.086z"></path>
</symbol>
<symbol id="icon-Facebook" viewBox="0 0 32 32">
<path d="M28.8 16.603c0-7.112-5.731-12.878-12.8-12.878s-12.8 5.766-12.8 12.878c0 6.428 4.681 11.756 10.8 12.722v-8.999h-3.25v-3.723h3.25v-2.837c0-3.228 1.911-5.010 4.835-5.010 1.401 0 2.865 0.252 2.865 0.252v3.169h-1.614c-1.59 0-2.086 0.993-2.086 2.011v2.416h3.55l-0.567 3.723h-2.983v8.999c6.119-0.966 10.8-6.294 10.8-12.722z"></path>
</symbol>
<symbol id="icon-Instagram" viewBox="0 0 32 32">
<path d="M15.998 6.769c3.078 0 3.442 0.014 4.652 0.068 1.125 0.050 1.732 0.238 2.137 0.396 0.536 0.207 0.922 0.459 1.323 0.86 0.405 0.405 0.652 0.788 0.864 1.323 0.158 0.405 0.346 1.017 0.396 2.137 0.054 1.215 0.068 1.579 0.068 4.653s-0.014 3.442-0.068 4.653c-0.050 1.125-0.238 1.732-0.396 2.137-0.207 0.536-0.459 0.922-0.86 1.322-0.405 0.405-0.788 0.652-1.323 0.864-0.405 0.158-1.017 0.346-2.137 0.396-1.215 0.054-1.58 0.068-4.653 0.068s-3.442-0.014-4.653-0.068c-1.125-0.050-1.732-0.238-2.137-0.396-0.536-0.207-0.922-0.459-1.323-0.86-0.405-0.405-0.652-0.788-0.864-1.323-0.158-0.405-0.346-1.017-0.396-2.137-0.054-1.215-0.068-1.58-0.068-4.653s0.014-3.442 0.068-4.653c0.050-1.125 0.238-1.732 0.396-2.137 0.207-0.536 0.459-0.922 0.86-1.323 0.405-0.405 0.788-0.652 1.323-0.864 0.405-0.158 1.017-0.346 2.137-0.396 1.21-0.054 1.575-0.068 4.653-0.068h0.001zM15.998 4.694c-3.127 0-3.518 0.014-4.747 0.068-1.224 0.054-2.065 0.252-2.794 0.536-0.76 0.297-1.404 0.688-2.042 1.332-0.644 0.639-1.035 1.282-1.332 2.038-0.284 0.734-0.482 1.57-0.536 2.794-0.054 1.233-0.068 1.624-0.068 4.751s0.014 3.518 0.068 4.747c0.054 1.224 0.252 2.065 0.536 2.794 0.297 0.76 0.688 1.404 1.332 2.042 0.639 0.638 1.282 1.035 2.038 1.328 0.734 0.284 1.57 0.482 2.794 0.536 1.228 0.054 1.62 0.068 4.747 0.068s3.519-0.014 4.747-0.068c1.224-0.054 2.065-0.252 2.794-0.536 0.756-0.292 1.4-0.688 2.038-1.328s1.035-1.282 1.328-2.038c0.284-0.734 0.482-1.57 0.536-2.794 0.054-1.228 0.068-1.62 0.068-4.747s-0.014-3.518-0.068-4.747c-0.054-1.224-0.252-2.065-0.536-2.794-0.284-0.765-0.675-1.408-1.318-2.047-0.639-0.639-1.282-1.035-2.038-1.327-0.734-0.284-1.57-0.482-2.794-0.536-1.232-0.058-1.624-0.072-4.751-0.072l-0.001 0.001z"></path>
<path d="M15.998 10.296c-3.266 0-5.917 2.65-5.917 5.917s2.65 5.917 5.917 5.917c3.267 0 5.917-2.65 5.917-5.917s-2.65-5.917-5.917-5.917zM15.998 20.051c-2.119 0-3.838-1.718-3.838-3.838s1.718-3.838 3.838-3.838c2.119 0 3.838 1.718 3.838 3.838s-1.718 3.838-3.838 3.838z"></path>
<path d="M23.529 10.062c0 0.763-0.618 1.382-1.381 1.382s-1.381-0.618-1.381-1.381 0.619-1.381 1.381-1.381c0.763 0 1.381 0.618 1.381 1.381z"></path>
</symbol>
<symbol id="icon-keyboard_arrow_down" viewBox="0 0 32 32">
<path stroke-linejoin="miter" stroke-linecap="butt" stroke-miterlimit="4" stroke-width="1.3333" d="M9.449 12.031c0.134 0 0.237 0.041 0.341 0.145l6.208 6.244 6.243-6.244c0.104-0.103 0.192-0.133 0.299-0.129 0.126 0.005 0.234 0.048 0.349 0.163 0.104 0.104 0.145 0.207 0.145 0.341s-0.041 0.236-0.145 0.34l-6.559 6.559c-0.072 0.072-0.129 0.107-0.167 0.122-0.047 0.020-0.101 0.031-0.165 0.031-0.033 0-0.062-0.004-0.090-0.009l-0.077-0.022-0.070-0.040c-0.028-0.019-0.059-0.046-0.095-0.082l-6.592-6.591c-0.098-0.098-0.133-0.191-0.129-0.318 0.005-0.143 0.053-0.255 0.163-0.365 0.104-0.104 0.206-0.144 0.34-0.145z"></path>
</symbol>
<symbol id="icon-keyboard_arrow_up" viewBox="0 0 32 32">
<path stroke-linejoin="miter" stroke-linecap="butt" stroke-miterlimit="4" stroke-width="1.3333" d="M22.533 19.603c-0.135 0-0.237-0.041-0.341-0.145l-6.208-6.243-6.243 6.243c-0.104 0.103-0.192 0.133-0.299 0.129-0.126-0.005-0.234-0.048-0.349-0.163-0.104-0.104-0.145-0.207-0.145-0.341s0.041-0.236 0.145-0.34l6.559-6.559c0.072-0.072 0.129-0.107 0.167-0.122 0.047-0.020 0.101-0.031 0.165-0.031 0.033 0 0.062 0.004 0.090 0.009l0.077 0.022 0.070 0.040c0.028 0.019 0.059 0.046 0.095 0.082l6.592 6.591c0.099 0.099 0.133 0.191 0.129 0.318-0.005 0.143-0.053 0.255-0.163 0.365-0.104 0.104-0.206 0.145-0.34 0.145z"></path>
</symbol>
<symbol id="icon-mobile-3-poloski" viewBox="0 0 32 32">
<path d="M10.468 20.147c-0.16 0-0.295-0.055-0.404-0.164s-0.164-0.246-0.164-0.41c0-0.161 0.055-0.296 0.164-0.403s0.244-0.161 0.404-0.161h11.064c0.16 0 0.296 0.055 0.406 0.164s0.166 0.245 0.166 0.406c0 0.164-0.055 0.299-0.166 0.407s-0.246 0.162-0.406 0.162h-11.064zM10.468 16.568c-0.16 0-0.295-0.055-0.404-0.165s-0.164-0.245-0.164-0.406c0-0.161 0.055-0.295 0.164-0.403s0.244-0.162 0.404-0.162h11.064c0.16 0 0.296 0.055 0.406 0.165s0.166 0.245 0.166 0.406c0 0.161-0.055 0.295-0.166 0.403s-0.246 0.162-0.406 0.162h-11.064zM10.468 12.992c-0.16 0-0.295-0.055-0.404-0.165s-0.164-0.246-0.164-0.41c0-0.161 0.055-0.296 0.164-0.403s0.244-0.162 0.404-0.162h11.064c0.16 0 0.296 0.055 0.406 0.165s0.166 0.245 0.166 0.406c0 0.164-0.055 0.3-0.166 0.407s-0.246 0.162-0.406 0.162h-11.064z"></path>
</symbol>
<symbol id="icon-notbook" viewBox="0 0 32 32">
<path d="M11.316 19.849c0.52 0 0.941 0.419 0.941 0.933-0.001 0.123-0.025 0.245-0.073 0.358s-0.117 0.217-0.204 0.303c-0.087 0.087-0.191 0.155-0.305 0.202s-0.236 0.070-0.359 0.070h-3.807c-0.123 0.001-0.245-0.023-0.359-0.069s-0.218-0.115-0.305-0.202c-0.088-0.087-0.157-0.19-0.205-0.303s-0.072-0.236-0.073-0.359c0-0.515 0.423-0.933 0.943-0.933h3.807zM12.236 16.392c0.52 0 0.941 0.42 0.941 0.933-0.001 0.123-0.025 0.245-0.073 0.359s-0.117 0.217-0.205 0.303c-0.088 0.087-0.191 0.155-0.305 0.202s-0.236 0.070-0.359 0.069h-4.704c-0.123 0.001-0.245-0.023-0.359-0.070s-0.218-0.115-0.305-0.202c-0.087-0.087-0.157-0.19-0.204-0.303s-0.072-0.235-0.073-0.358c0-0.515 0.421-0.933 0.941-0.933h4.705zM17.388 11.779c0.004-0.745 0.303-1.459 0.833-1.984s1.246-0.818 1.991-0.815c0.746-0.003 1.462 0.29 1.992 0.816s0.829 1.239 0.832 1.984c-0.004 0.746-0.304 1.46-0.833 1.985s-1.245 0.82-1.991 0.819c-0.746 0.001-1.462-0.294-1.991-0.82s-0.829-1.24-0.833-1.986zM25.733 20.524c0.133 0.825-0.504 1.573-1.34 1.571h-8.363c-0.196 0-0.391-0.042-0.569-0.124s-0.337-0.202-0.464-0.351-0.221-0.325-0.274-0.514c-0.053-0.189-0.064-0.387-0.033-0.581 0.42-2.589 1.855-4.679 3.728-5.507 0.549 0.305 1.166 0.465 1.793 0.465s1.245-0.16 1.793-0.465c1.873 0.828 3.309 2.92 3.728 5.507zM14.117 14.804c-11.173 0-0.196-0.003-6.588-0.003-0.123 0.001-0.245-0.023-0.359-0.069s-0.218-0.115-0.305-0.202c-0.088-0.087-0.157-0.19-0.205-0.303s-0.072-0.236-0.073-0.359c0-0.515 0.423-0.933 0.943-0.933l6.588 0.001c0.52 0 0.943 0.419 0.941 0.935 0 0.123-0.024 0.245-0.072 0.359s-0.117 0.217-0.204 0.304c-0.088 0.087-0.191 0.155-0.306 0.202s-0.236 0.070-0.36 0.069zM7.531 11.345c-0.123 0.001-0.246-0.022-0.36-0.068s-0.218-0.115-0.306-0.202-0.157-0.19-0.205-0.304c-0.048-0.114-0.072-0.236-0.072-0.359 0-0.515 0.423-0.933 0.943-0.933h6.587c0.519 0 0.94 0.417 0.94 0.933-0.001 0.248-0.101 0.486-0.278 0.661s-0.415 0.272-0.663 0.271l-6.585 0.001zM17.943 24.835c0.232 0 0.455-0.092 0.619-0.255s0.258-0.385 0.261-0.617h9.413v-16.8h-24.471v16.799h9.412c0 0.481 0.393 0.872 0.88 0.872l3.885 0.001zM32 23.963v1.276c0 0.807-0.661 1.461-1.475 1.461h-29.051c-0.813 0-1.475-0.653-1.475-1.461v-1.276h1.884v-16.82c0-1.017 0.831-1.843 1.859-1.843h24.516c1.027 0 1.859 0.825 1.859 1.843v16.82h1.883z"></path>
</symbol>
<symbol id="icon-oladnenya" viewBox="0 0 32 32">
<path stroke-linejoin="round" stroke-linecap="round" stroke-miterlimit="4" stroke-width="2.2857" d="M10.695 11.755l1.061-8.489h8.489l1.061 8.489M9.632 18.123h12.736M1.143 15.982c0-2.331 1.899-4.226 4.245-4.226h21.225c2.345 0 4.245 1.893 4.245 4.229v8.373c0 2.75-2.601 4.791-5.319 4.306-2.873-0.51-6.455-1.006-9.538-1.006s-6.665 0.496-9.538 1.006c-2.72 0.487-5.319-1.554-5.319-4.304v-8.377z"></path>
</symbol>
<symbol id="icon-star_filled" viewBox="0 0 32 32">
<path d="M16.008 21.885l-5.639 4.296c-0.227 0.172-0.456 0.246-0.688 0.224s-0.447-0.097-0.646-0.224c-0.199-0.127-0.341-0.299-0.427-0.518s-0.093-0.463-0.021-0.734l2.152-7.007-5.531-3.979c-0.227-0.154-0.373-0.349-0.439-0.584s-0.061-0.457 0.017-0.667c0.077-0.204 0.203-0.388 0.377-0.551s0.405-0.245 0.692-0.245h6.858l2.193-7.307c0.072-0.276 0.215-0.483 0.427-0.622s0.435-0.207 0.667-0.207 0.454 0.069 0.667 0.207c0.213 0.138 0.358 0.345 0.435 0.622l2.185 7.307h6.866c0.282 0 0.509 0.082 0.684 0.245s0.3 0.347 0.377 0.551c0.077 0.21 0.083 0.432 0.017 0.667s-0.212 0.43-0.439 0.584l-5.531 3.979 2.152 6.999c0.072 0.277 0.065 0.522-0.021 0.738s-0.228 0.387-0.427 0.514c-0.199 0.132-0.413 0.209-0.643 0.232s-0.457-0.055-0.684-0.232l-5.631-4.289z"></path>
</symbol>
<symbol id="icon-star_rate" viewBox="0 0 32 32">
<path d="M11.433 22.567l4.567-3.467 4.567 3.467-1.833-5.767 4.2-2.733h-5.033l-1.9-5.767-1.9 5.767h-5.033l4.2 2.733-1.833 5.767zM16.008 21.885l-5.639 4.296c-0.227 0.172-0.456 0.246-0.688 0.224s-0.447-0.097-0.646-0.224c-0.199-0.127-0.341-0.299-0.427-0.518s-0.093-0.463-0.021-0.734l2.152-7.007-5.531-3.979c-0.227-0.154-0.373-0.349-0.439-0.584s-0.061-0.457 0.017-0.667c0.077-0.204 0.203-0.388 0.377-0.551s0.405-0.245 0.692-0.245h6.858l2.193-7.307c0.072-0.276 0.215-0.483 0.427-0.622s0.435-0.207 0.667-0.207 0.454 0.069 0.667 0.207c0.213 0.138 0.358 0.345 0.435 0.622l2.185 7.307h6.866c0.282 0 0.509 0.082 0.684 0.245s0.3 0.347 0.377 0.551c0.077 0.21 0.083 0.432 0.017 0.667s-0.212 0.43-0.439 0.584l-5.531 3.979 2.152 6.999c0.072 0.277 0.065 0.522-0.021 0.738s-0.228 0.387-0.427 0.514c-0.199 0.132-0.413 0.209-0.643 0.232s-0.457-0.055-0.684-0.232l-5.631-4.289z"></path>
</symbol>
<symbol id="icon-star_rate_half" viewBox="0 0 32 32">
<path d="M16 8.3v10.8l4.567 3.467-1.833-5.767 4.2-2.733h-5.033l-1.9-5.767zM16.008 21.885l-5.639 4.296c-0.227 0.172-0.456 0.246-0.688 0.224s-0.447-0.097-0.646-0.224c-0.199-0.127-0.341-0.299-0.427-0.518s-0.093-0.463-0.021-0.734l2.152-7.007-5.531-3.979c-0.227-0.154-0.373-0.349-0.439-0.584s-0.061-0.457 0.017-0.667c0.077-0.204 0.203-0.388 0.377-0.551s0.405-0.245 0.692-0.245h6.858l2.193-7.307c0.072-0.276 0.215-0.483 0.427-0.622s0.435-0.207 0.667-0.207 0.454 0.069 0.667 0.207c0.213 0.138 0.358 0.345 0.435 0.622l2.185 7.307h6.866c0.282 0 0.509 0.082 0.684 0.245s0.3 0.347 0.377 0.551c0.077 0.21 0.083 0.432 0.017 0.667s-0.212 0.43-0.439 0.584l-5.531 3.979 2.152 6.999c0.072 0.277 0.065 0.522-0.021 0.738s-0.228 0.387-0.427 0.514c-0.199 0.132-0.413 0.209-0.643 0.232s-0.457-0.055-0.684-0.232l-5.631-4.289z"></path>
</symbol>
<symbol id="icon-tarifi" viewBox="0 0 32 32">
<path d="M16.42 5c-0.27 0-0.531 0.1-0.733 0.28l-11.407 11.533c-0.382 0.383-0.388 1-0.015 1.391l0.016 0.017 9.516 9.515c0.392 0.374 1.011 0.367 1.394-0.015l11.53-11.407c0.18-0.202 0.279-0.463 0.279-0.734v-7.913c0-1.473-1.194-2.667-2.667-2.667h-7.913zM16.062 7.787c0.501-0.504 1.181-0.787 1.891-0.787h4.38c1.473 0 2.667 1.194 2.667 2.667v4.38c0 0.71-0.283 1.391-0.787 1.891l-7.828 7.782c-1.042 1.036-2.726 1.034-3.766-0.006l-4.334-4.334c-1.039-1.039-1.042-2.723-0.006-3.766l7.782-7.828zM22 9c-0.265 0-0.52 0.105-0.707 0.293s-0.293 0.442-0.293 0.707 0.105 0.52 0.293 0.707c0.188 0.188 0.442 0.293 0.707 0.293s0.52-0.105 0.707-0.293c0.188-0.188 0.293-0.442 0.293-0.707s-0.105-0.52-0.293-0.707c-0.188-0.188-0.442-0.293-0.707-0.293z"></path>
</symbol>
<symbol id="icon-tiktok" viewBox="0 0 32 32">
<path d="M21.888 8.303c-0.875-0.999-1.357-2.282-1.357-3.61h-3.955v15.872c-0.030 0.859-0.392 1.673-1.011 2.27s-1.445 0.93-2.304 0.93c-1.818 0-3.328-1.485-3.328-3.328 0-2.202 2.125-3.853 4.314-3.174v-4.045c-4.416-0.589-8.282 2.842-8.282 7.219 0 4.262 3.533 7.296 7.283 7.296 4.019 0 7.283-3.264 7.283-7.296v-8.051c1.604 1.152 3.529 1.77 5.504 1.766v-3.955c0 0-2.406 0.115-4.147-1.894z"></path>
</symbol>
<symbol id="icon-zone-komfort" viewBox="0 0 32 32">
<path d="M11.873 5.667h8.253c1.117 0 1.829 0 2.443 0.121 1.229 0.244 2.357 0.848 3.243 1.733s1.489 2.014 1.733 3.243c0.093 0.467 0.115 0.991 0.12 1.707 0.768 0.217 1.445 0.68 1.926 1.317s0.742 1.414 0.742 2.212v3.259c0 2.040-1.064 3.832-2.667 4.849v1.225c0 0.265-0.105 0.52-0.293 0.707s-0.442 0.293-0.707 0.293c-0.265 0-0.52-0.105-0.707-0.293s-0.293-0.442-0.293-0.707v-0.433c-0.348 0.067-0.707 0.1-1.075 0.1h-17.184c-0.368 0-0.726-0.033-1.075-0.1v0.433c0 0.265-0.105 0.52-0.293 0.707s-0.442 0.293-0.707 0.293c-0.265 0-0.52-0.105-0.707-0.293s-0.293-0.442-0.293-0.707v-1.225c-0.817-0.517-1.491-1.233-1.957-2.081s-0.71-1.8-0.71-2.767v-3.26c0-1.68 1.128-3.093 2.668-3.529 0.005-0.716 0.027-1.24 0.12-1.707 0.244-1.229 0.848-2.357 1.733-3.243s2.014-1.489 3.243-1.733c0.613-0.121 1.325-0.121 2.443-0.121zM6.336 12.472c0.767 0.218 1.443 0.681 1.923 1.317s0.741 1.413 0.741 2.211v1.6c0 0.037 0.029 0.067 0.067 0.067h13.867c0.018 0 0.035-0.007 0.047-0.020s0.020-0.029 0.020-0.047v-1.6c0-1.677 1.127-3.092 2.664-3.528-0.005-0.68-0.023-1.027-0.080-1.317-0.167-0.841-0.58-1.613-1.186-2.219s-1.378-1.019-2.219-1.186c-0.395-0.077-0.892-0.083-2.179-0.083h-8c-1.287 0-1.784 0.005-2.179 0.083-0.841 0.167-1.613 0.58-2.219 1.186s-1.019 1.378-1.186 2.219c-0.057 0.291-0.075 0.639-0.080 1.317zM5.333 14.333c-0.92 0-1.667 0.747-1.667 1.667v3.259c0 0.992 0.394 1.944 1.096 2.646s1.653 1.096 2.646 1.096h17.184c0.992 0 1.944-0.394 2.646-1.096s1.096-1.653 1.096-2.646v-3.259c0-0.442-0.176-0.866-0.488-1.179s-0.737-0.488-1.179-0.488-0.866 0.176-1.179 0.488c-0.313 0.313-0.488 0.737-0.488 1.179v1.6c0 0.548-0.218 1.074-0.605 1.461s-0.913 0.605-1.461 0.605h-13.867c-0.548 0-1.074-0.218-1.461-0.605s-0.605-0.913-0.605-1.461v-1.6c0-0.92-0.747-1.667-1.667-1.667z"></path>
</symbol>
</defs>
</svg>
